# xmcd CD database file
#
# Track frame offsets:
#	150
#	3319
#	23345
#	46982
#	68352
#	87754
#	108124
#	128513
#	149481
#	169751
#
# Disc length: 2597 seconds
#
# Revision: 0
# Processed by: cddbd v1.5.2PL0 Copyright (c) Steve Scherf et al.
# Submitted via: CDex 1.51
#
DISCID=6a0a230a
DTITLE=Heads Up Super Band - Live atthe Berk's Jazz Festival
DYEAR=1998
DGENRE=Jazz
TTITLE0=Intro
TTITLE1=Sweet Street
TTITLE2=Night Games
TTITLE3=Sarah Smile
TTITLE4=Dancing at The Pagoda
TTITLE5=One for Albert
TTITLE6=Late Night At Camelot
TTITLE7=On Eagle's Wings
TTITLE8=All's Well
TTITLE9=Mississippi Mudslide
EXTD=YEAR: 1998
EXTT0=
EXTT1=
EXTT2=
EXTT3=
EXTT4=
EXTT5=
EXTT6=
EXTT7=
EXTT8=
EXTT9=
PLAYORDER=
